<svg version="1.1" xmlns="http://www.w3.org/2000/svg" viewBox="0 0 1827.828659057617 774.0001242501395" width="1827.828659057617" height="774.0001242501395" filter="invert(93%) hue-rotate(180deg)">
  <!-- svg-source:excalidraw -->
  
  <defs>
    <style class="style-fonts">
      @font-face {
        font-family: "Virgil";
        src: url("https://excalidraw.com/Virgil.woff2");
      }
      @font-face {
        font-family: "Cascadia";
        src: url("https://excalidraw.com/Cascadia.woff2");
      }
      @font-face {
        font-family: "Assistant";
        src: url("https://excalidraw.com/Assistant-Regular.woff2");
      }
    </style>
    
  </defs>
  <rect x="0" y="0" width="1827.828659057617" height="774.0001242501395" fill="#ffffff"></rect><g stroke-linecap="round" transform="translate(744.8000030517578 10) rotate(0 58 33.20001220703125)"><path d="M16.6 0 C42.98 -1.08, 71.39 0.47, 99.4 0 M16.6 0 C39.72 0.55, 63.45 0.12, 99.4 0 M99.4 0 C108.49 1.52, 117.23 6.24, 116 16.6 M99.4 0 C109.5 -1.94, 115.53 6.2, 116 16.6 M116 16.6 C114.63 24.72, 116.41 35.32, 116 49.8 M116 16.6 C115.49 28.56, 116.82 39.72, 116 49.8 M116 49.8 C117.23 61.51, 111.49 66.01, 99.4 66.4 M116 49.8 C118.12 60.9, 110.51 67.61, 99.4 66.4 M99.4 66.4 C78.77 64.03, 58.94 67.86, 16.6 66.4 M99.4 66.4 C78.34 67.64, 58.82 67.28, 16.6 66.4 M16.6 66.4 C6.56 66.14, 0.3 61.57, 0 49.8 M16.6 66.4 C6.01 67.7, 1.53 58.63, 0 49.8 M0 49.8 C-2.04 40.9, -1.18 33.15, 0 16.6 M0 49.8 C-0.67 37.44, -0.4 24.57, 0 16.6 M0 16.6 C0.42 5.05, 5.43 0.35, 16.6 0 M0 16.6 C-1.63 6.25, 4.4 0.31, 16.6 0" stroke="#1e1e1e" stroke-width="2" fill="none"></path></g><g transform="translate(782.9400177001953 30.70001220703125) rotate(0 19.8599853515625 12.5)"><text x="19.8599853515625" y="0" font-family="Virgil, Segoe UI Emoji" font-size="20px" fill="#1e1e1e" text-anchor="middle" style="white-space: pre;" direction="ltr" dominant-baseline="text-before-edge">main</text></g><g stroke-linecap="round" transform="translate(754.0000762939453 158.40000915527344) rotate(0 58 33.20001220703125)"><path d="M16.6 0 C46.23 0.37, 74.96 -0.41, 99.4 0 M16.6 0 C40.49 1.07, 64.26 1.1, 99.4 0 M99.4 0 C110.04 1.14, 117.18 5.51, 116 16.6 M99.4 0 C111.85 -1.7, 114.26 5.16, 116 16.6 M116 16.6 C116.21 25.4, 117.48 33.23, 116 49.8 M116 16.6 C116.75 25.31, 116.91 33.86, 116 49.8 M116 49.8 C115.48 61.05, 109.5 65.21, 99.4 66.4 M116 49.8 C114.74 59.88, 109.14 68.35, 99.4 66.4 M99.4 66.4 C72.54 66.7, 47.34 65.9, 16.6 66.4 M99.4 66.4 C68.74 64.79, 37.58 64.73, 16.6 66.4 M16.6 66.4 C6.78 66.9, 0.59 62.57, 0 49.8 M16.6 66.4 C6.82 65.44, 0.58 63.14, 0 49.8 M0 49.8 C1.3 39.2, 1.58 24.2, 0 16.6 M0 49.8 C-0.83 38.66, -0.64 26.22, 0 16.6 M0 16.6 C1.45 6.61, 3.61 -1.5, 16.6 0 M0 16.6 C-1.45 5.82, 5.54 -1.12, 16.6 0" stroke="#1e1e1e" stroke-width="2" fill="none"></path></g><g transform="translate(795.4700927734375 179.1000213623047) rotate(0 16.529983520507812 12.5)"><text x="16.529983520507812" y="0" font-family="Virgil, Segoe UI Emoji" font-size="20px" fill="#1e1e1e" text-anchor="middle" style="white-space: pre;" direction="ltr" dominant-baseline="text-before-edge">app</text></g><g stroke-linecap="round" transform="translate(756.3999176025391 229.99998474121094) rotate(0 58 33.20001220703125)"><path d="M16.6 0 C46.44 0.29, 78.14 -0.25, 99.4 0 M16.6 0 C37.86 0.23, 60.85 0.21, 99.4 0 M99.4 0 C110.46 0.17, 117.05 5.05, 116 16.6 M99.4 0 C109.99 1.22, 116.36 5.35, 116 16.6 M116 16.6 C116.08 26.13, 115.59 32.09, 116 49.8 M116 16.6 C116.21 24.25, 115.64 31.5, 116 49.8 M116 49.8 C115.81 59.57, 110.13 66.57, 99.4 66.4 M116 49.8 C115.45 59.97, 111.64 66.95, 99.4 66.4 M99.4 66.4 C76.66 66.31, 54.36 68.08, 16.6 66.4 M99.4 66.4 C67.14 66.03, 36.18 65.06, 16.6 66.4 M16.6 66.4 C6.8 66.2, 0.63 62.17, 0 49.8 M16.6 66.4 C7.27 66.75, -0.65 58.6, 0 49.8 M0 49.8 C-0.28 41.74, -0.22 32.89, 0 16.6 M0 49.8 C0.07 37.46, -0.55 27.15, 0 16.6 M0 16.6 C0.56 6.33, 5.35 -0.9, 16.6 0 M0 16.6 C0.07 5.94, 5.21 1.58, 16.6 0" stroke="#1e1e1e" stroke-width="2" fill="none"></path></g><g transform="translate(783.4599533081055 250.6999969482422) rotate(0 30.939964294433594 12.5)"><text x="30.939964294433594" y="0" font-family="Virgil, Segoe UI Emoji" font-size="20px" fill="#1e1e1e" text-anchor="middle" style="white-space: pre;" direction="ltr" dominant-baseline="text-before-edge">router</text></g><g stroke-linecap="round" transform="translate(231.1999969482422 312.8000030517578) rotate(0 58 33.20001220703125)"><path d="M16.6 0 C42.07 -0.78, 63.84 -0.14, 99.4 0 M16.6 0 C36.1 0.86, 56.35 0.08, 99.4 0 M99.4 0 C111.68 1.99, 117.12 3.86, 116 16.6 M99.4 0 C111.58 0.66, 113.84 4.77, 116 16.6 M116 16.6 C115.4 26.14, 115.51 36.53, 116 49.8 M116 16.6 C116.33 26.66, 116.66 35.01, 116 49.8 M116 49.8 C114.26 60.35, 111.79 64.99, 99.4 66.4 M116 49.8 C116.56 59.46, 112.45 65.87, 99.4 66.4 M99.4 66.4 C65.56 67.45, 35.04 65.38, 16.6 66.4 M99.4 66.4 C75.61 65.74, 51.26 66.46, 16.6 66.4 M16.6 66.4 C4.78 67.18, 0.98 59.13, 0 49.8 M16.6 66.4 C6.12 65.18, -0.68 61.13, 0 49.8 M0 49.8 C-1.13 40.19, -1.31 32.54, 0 16.6 M0 49.8 C0.94 43.49, -0.04 36.63, 0 16.6 M0 16.6 C-1.94 7.24, 5.35 0.81, 16.6 0 M0 16.6 C-0.46 4.62, 7.36 1.4, 16.6 0" stroke="#1e1e1e" stroke-width="2" fill="none"></path></g><g transform="translate(239.1900405883789 333.50001525878906) rotate(0 50.00995635986328 12.5)"><text x="50.00995635986328" y="0" font-family="Virgil, Segoe UI Emoji" font-size="20px" fill="#1e1e1e" text-anchor="middle" style="white-space: pre;" direction="ltr" dominant-baseline="text-before-edge">dashboard</text></g><g stroke-linecap="round" transform="translate(231.14283752441418 443.6000475202288) rotate(0 58 33.20001220703125)"><path d="M16.6 0 C36.13 1.91, 58.54 0.63, 99.4 0 M16.6 0 C43.35 -0.56, 72.12 0.99, 99.4 0 M99.4 0 C109.1 -0.52, 116.31 4.21, 116 16.6 M99.4 0 C112.37 -1.97, 115.18 5.48, 116 16.6 M116 16.6 C115.75 25.93, 114.19 33.7, 116 49.8 M116 16.6 C116.41 27.98, 116.32 40.57, 116 49.8 M116 49.8 C116.25 61.81, 109.12 64.85, 99.4 66.4 M116 49.8 C115.11 60.06, 111.05 68.38, 99.4 66.4 M99.4 66.4 C68.39 65.13, 35.59 68, 16.6 66.4 M99.4 66.4 C75.74 66.31, 51.04 67.98, 16.6 66.4 M16.6 66.4 C5.64 66.8, -1.38 62.86, 0 49.8 M16.6 66.4 C5.27 65.68, 1.16 58.99, 0 49.8 M0 49.8 C-1.72 42.14, 1.84 30.43, 0 16.6 M0 49.8 C0.97 42.09, -0.69 35.54, 0 16.6 M0 16.6 C0.62 6.02, 4.81 1.77, 16.6 0 M0 16.6 C-2.28 7.63, 3.44 1.22, 16.6 0" stroke="#e03131" stroke-width="2" fill="none"></path></g><g transform="translate(254.31287384033214 464.3000597272601) rotate(0 34.82996368408203 12.5)"><text x="34.82996368408203" y="0" font-family="Virgil, Segoe UI Emoji" font-size="20px" fill="#e03131" text-anchor="middle" style="white-space: pre;" direction="ltr" dominant-baseline="text-before-edge">sidebar</text></g><g stroke-linecap="round" transform="translate(379.6571459089007 440.57134791782926) rotate(0 58 33.20001220703125)"><path d="M16.6 0 C41.41 -0.85, 65.27 1.53, 99.4 0 M16.6 0 C49.32 -0.45, 82.54 -0.64, 99.4 0 M99.4 0 C109.75 -0.04, 115.57 4.63, 116 16.6 M99.4 0 C109.97 -0.12, 116.1 3.62, 116 16.6 M116 16.6 C117.13 25.61, 115.15 33.09, 116 49.8 M116 16.6 C115.37 26.34, 115.66 37.28, 116 49.8 M116 49.8 C116.51 62.59, 112.22 65.11, 99.4 66.4 M116 49.8 C115.92 62.1, 109.03 66.81, 99.4 66.4 M99.4 66.4 C69.74 68.47, 34.48 68.18, 16.6 66.4 M99.4 66.4 C67.38 67.56, 36.62 66.25, 16.6 66.4 M16.6 66.4 C6.54 64.77, -0.51 61.44, 0 49.8 M16.6 66.4 C6.81 64.53, 1.68 63.09, 0 49.8 M0 49.8 C2.18 43.44, -1.19 32.06, 0 16.6 M0 49.8 C-0.46 41.8, -1.1 32.94, 0 16.6 M0 16.6 C-1.82 6.6, 5.38 0.69, 16.6 0 M0 16.6 C-1.38 7.45, 5.02 -0.28, 16.6 0" stroke="#e03131" stroke-width="2" fill="none"></path></g><g transform="translate(405.1171755109515 461.2713601248605) rotate(0 32.53997039794922 12.5)"><text x="32.53997039794922" y="0" font-family="Virgil, Segoe UI Emoji" font-size="20px" fill="#e03131" text-anchor="middle" style="white-space: pre;" direction="ltr" dominant-baseline="text-before-edge">header</text></g><g stroke-linecap="round" transform="translate(371.59999084472656 314.7999725341797) rotate(0 66 33.20001220703125)"><path d="M16.6 0 C39.14 0.75, 58.95 1.94, 115.4 0 M16.6 0 C41.74 -1.63, 65.93 -1.42, 115.4 0 M115.4 0 C124.76 -1.92, 131.6 6.04, 132 16.6 M115.4 0 C124.85 2.1, 130.75 6.3, 132 16.6 M132 16.6 C133.6 29.69, 133.62 42.16, 132 49.8 M132 16.6 C131.36 28.42, 132.23 39.89, 132 49.8 M132 49.8 C130.49 60.78, 126.33 65.21, 115.4 66.4 M132 49.8 C130.2 59.16, 126.17 64.41, 115.4 66.4 M115.4 66.4 C95.08 67.33, 77.1 68.35, 16.6 66.4 M115.4 66.4 C93.19 66.26, 72.03 67.24, 16.6 66.4 M16.6 66.4 C6.24 66.86, 0.54 59.46, 0 49.8 M16.6 66.4 C4.42 67.54, 0.74 59.11, 0 49.8 M0 49.8 C-0.41 35.7, 0.04 23.1, 0 16.6 M0 49.8 C-0.26 41.8, 0.88 34.42, 0 16.6 M0 16.6 C0.37 6.89, 7.22 -0.66, 16.6 0 M0 16.6 C0.12 5.03, 5.52 -0.64, 16.6 0" stroke="#1e1e1e" stroke-width="2" fill="none"></path></g><g transform="translate(380.0900421142578 335.49998474121094) rotate(0 57.50994873046875 12.5)"><text x="57.50994873046875" y="0" font-family="Virgil, Segoe UI Emoji" font-size="20px" fill="#1e1e1e" text-anchor="middle" style="white-space: pre;" direction="ltr" dominant-baseline="text-before-edge">leaderboard</text></g><g stroke-linecap="round" transform="translate(529.5999298095703 310.3999786376953) rotate(0 58 33.20001220703125)"><path d="M16.6 0 C34.79 -0.27, 53.06 -2.51, 99.4 0 M16.6 0 C44.55 1.62, 73.15 0.72, 99.4 0 M99.4 0 C112.41 -0.3, 116.51 7.49, 116 16.6 M99.4 0 C110.05 0.25, 116.88 5.32, 116 16.6 M116 16.6 C117.51 22.28, 116.06 29.55, 116 49.8 M116 16.6 C116.57 25.82, 115.09 33.4, 116 49.8 M116 49.8 C114.4 59.81, 112.17 66.74, 99.4 66.4 M116 49.8 C117.93 61.5, 108.91 67.01, 99.4 66.4 M99.4 66.4 C73.32 67.1, 43.52 64.63, 16.6 66.4 M99.4 66.4 C74.2 65.21, 47.71 65.41, 16.6 66.4 M16.6 66.4 C7.43 65.4, 1.85 62.13, 0 49.8 M16.6 66.4 C5.01 66.05, -0.91 62.99, 0 49.8 M0 49.8 C-1.66 39.24, -0.32 28.82, 0 16.6 M0 49.8 C-0.35 38.34, 0.73 26.65, 0 16.6 M0 16.6 C1.7 6.69, 5.4 -1.14, 16.6 0 M0 16.6 C0.94 7.4, 7.45 -1.63, 16.6 0" stroke="#1e1e1e" stroke-width="2" fill="none"></path></g><g transform="translate(562.2999572753906 331.09999084472656) rotate(0 25.299972534179688 12.5)"><text x="25.299972534179688" y="0" font-family="Virgil, Segoe UI Emoji" font-size="20px" fill="#1e1e1e" text-anchor="middle" style="white-space: pre;" direction="ltr" dominant-baseline="text-before-edge">order</text></g><g stroke-linecap="round" transform="translate(670.8000030517578 311.59999084472656) rotate(0 58 33.20001220703125)"><path d="M16.6 0 C44.58 0.77, 69.74 1.4, 99.4 0 M16.6 0 C33.15 -0.02, 51.54 -1.06, 99.4 0 M99.4 0 C110.09 -1.56, 117.01 7.02, 116 16.6 M99.4 0 C110.19 2.26, 116.38 4.58, 116 16.6 M116 16.6 C116 30.39, 117.91 41.62, 116 49.8 M116 16.6 C117.07 24.5, 115.64 34.3, 116 49.8 M116 49.8 C115.39 62.06, 111 66.17, 99.4 66.4 M116 49.8 C114.64 63.08, 110.04 67, 99.4 66.4 M99.4 66.4 C81.13 65.17, 66.4 67.28, 16.6 66.4 M99.4 66.4 C81.7 67.1, 63.05 66.15, 16.6 66.4 M16.6 66.4 C5.65 67.72, -0.51 60.46, 0 49.8 M16.6 66.4 C4.1 66.53, 1.38 61.27, 0 49.8 M0 49.8 C-1.32 43.08, 1.73 32.5, 0 16.6 M0 49.8 C-0.03 38.77, -0.43 27.9, 0 16.6 M0 16.6 C1.27 6.43, 6.52 1.89, 16.6 0 M0 16.6 C1.52 7.05, 6.07 0.3, 16.6 0" stroke="#1e1e1e" stroke-width="2" fill="none"></path></g><g transform="translate(686.5600509643555 332.3000030517578) rotate(0 42.239952087402344 12.5)"><text x="42.239952087402344" y="0" font-family="Virgil, Segoe UI Emoji" font-size="20px" fill="#1e1e1e" text-anchor="middle" style="white-space: pre;" direction="ltr" dominant-baseline="text-before-edge">products</text></g><g stroke-linecap="round" transform="translate(801.5999908447266 310.3999786376953) rotate(0 65.20001220703125 33.20001220703125)"><path d="M16.6 0 C48.53 -1.91, 75.53 -0.23, 113.8 0 M16.6 0 C50.43 -0.16, 85.56 -0.76, 113.8 0 M113.8 0 C125.29 -0.28, 130.56 3.68, 130.4 16.6 M113.8 0 C125.74 -0.45, 128.61 5.16, 130.4 16.6 M130.4 16.6 C130.8 25.93, 130.67 37.87, 130.4 49.8 M130.4 16.6 C131.02 25.25, 130.05 33.85, 130.4 49.8 M130.4 49.8 C132.05 62.63, 126.85 65.65, 113.8 66.4 M130.4 49.8 C130.63 61.65, 126.54 65.45, 113.8 66.4 M113.8 66.4 C81.6 64.51, 50.9 66.59, 16.6 66.4 M113.8 66.4 C84.66 65.65, 56.49 66.31, 16.6 66.4 M16.6 66.4 C7.32 65.75, -1.07 59.19, 0 49.8 M16.6 66.4 C7.79 64.85, 2.23 58.65, 0 49.8 M0 49.8 C1.79 40.83, -0.37 32.68, 0 16.6 M0 49.8 C0.05 37.66, -0.92 25.78, 0 16.6 M0 16.6 C-0.47 4.85, 6.89 1.04, 16.6 0 M0 16.6 C-1.09 4.48, 3.88 -1.44, 16.6 0" stroke="#1e1e1e" stroke-width="2" fill="none"></path></g><g transform="translate(810.9800643920898 331.09999084472656) rotate(0 55.81993865966797 12.5)"><text x="55.81993865966797" y="0" font-family="Virgil, Segoe UI Emoji" font-size="20px" fill="#1e1e1e" text-anchor="middle" style="white-space: pre;" direction="ltr" dominant-baseline="text-before-edge">salesreport</text></g><g stroke-linecap="round" transform="translate(952.4000396728516 310.8000030517578) rotate(0 58 33.20001220703125)"><path d="M16.6 0 C38.89 -0.94, 63.08 0.32, 99.4 0 M16.6 0 C34.12 -1.18, 52.27 -1.19, 99.4 0 M99.4 0 C109.57 -0.6, 116.47 7.28, 116 16.6 M99.4 0 C110.19 -1.76, 114.74 3.73, 116 16.6 M116 16.6 C116.59 26.82, 118.18 36.74, 116 49.8 M116 16.6 C115.49 25.69, 116.54 36.69, 116 49.8 M116 49.8 C115.64 61.4, 110.66 67.2, 99.4 66.4 M116 49.8 C116.33 61.77, 111.31 67.46, 99.4 66.4 M99.4 66.4 C83.91 65.21, 67.16 68.65, 16.6 66.4 M99.4 66.4 C77.34 66.63, 55.74 67.28, 16.6 66.4 M16.6 66.4 C6.23 65.13, 0.86 59.03, 0 49.8 M16.6 66.4 C4.53 67.74, 0.24 59.46, 0 49.8 M0 49.8 C1.06 39.03, -0.48 30.82, 0 16.6 M0 49.8 C-0.3 43.41, -0.5 34.44, 0 16.6 M0 16.6 C1.05 7.33, 4.42 -1.53, 16.6 0 M0 16.6 C1.55 3.35, 3.32 1.52, 16.6 0" stroke="#1e1e1e" stroke-width="2" fill="none"></path></g><g transform="translate(965.1600875854492 331.50001525878906) rotate(0 45.239952087402344 12.5)"><text x="45.239952087402344" y="0" font-family="Virgil, Segoe UI Emoji" font-size="20px" fill="#1e1e1e" text-anchor="middle" style="white-space: pre;" direction="ltr" dominant-baseline="text-before-edge">messages</text></g><g stroke-linecap="round" transform="translate(1096.0001373291016 309.6000213623047) rotate(0 58 33.20001220703125)"><path d="M16.6 0 C38.55 0.59, 59.36 0.65, 99.4 0 M16.6 0 C46.15 0.89, 74.42 0.05, 99.4 0 M99.4 0 C112.3 -0.08, 117.25 5.62, 116 16.6 M99.4 0 C111.45 0.44, 114.34 7.45, 116 16.6 M116 16.6 C115.43 28.38, 115.59 38.6, 116 49.8 M116 16.6 C116.3 22.35, 116.5 30.84, 116 49.8 M116 49.8 C116.72 62.19, 110.55 65.06, 99.4 66.4 M116 49.8 C117.42 62.55, 111.59 64.3, 99.4 66.4 M99.4 66.4 C76.09 67.88, 49.7 67.63, 16.6 66.4 M99.4 66.4 C72.71 66.66, 46.35 65.72, 16.6 66.4 M16.6 66.4 C5.92 65.95, 0.1 60.17, 0 49.8 M16.6 66.4 C5.73 66.83, 1.51 62.94, 0 49.8 M0 49.8 C0.88 42.78, 0.42 32.61, 0 16.6 M0 49.8 C0.19 43.08, -0.11 36.46, 0 16.6 M0 16.6 C-0.41 3.93, 7.26 -1.36, 16.6 0 M0 16.6 C-1.44 5.06, 5.85 2.15, 16.6 0" stroke="#1e1e1e" stroke-width="2" fill="none"></path></g><g transform="translate(1119.93017578125 330.30003356933594) rotate(0 34.06996154785156 12.5)"><text x="34.06996154785156" y="0" font-family="Virgil, Segoe UI Emoji" font-size="20px" fill="#1e1e1e" text-anchor="middle" style="white-space: pre;" direction="ltr" dominant-baseline="text-before-edge">setting</text></g><g stroke-linecap="round" transform="translate(736.0000152587891 90) rotate(0 71.20001220703125 30)"><path d="M15 0 C44.15 1.2, 74.71 0.75, 127.4 0 M15 0 C59.18 -0.53, 102.49 0.48, 127.4 0 M127.4 0 C136.58 1.72, 142.77 5.27, 142.4 15 M127.4 0 C138.14 -1.54, 140.65 4.88, 142.4 15 M142.4 15 C143.05 24.5, 141.07 29.64, 142.4 45 M142.4 15 C143.11 21.05, 141.96 29.91, 142.4 45 M142.4 45 C140.59 53.52, 135.77 58.36, 127.4 60 M142.4 45 C143.37 53.47, 137.02 60.42, 127.4 60 M127.4 60 C89.93 61.98, 51.82 59.54, 15 60 M127.4 60 C85.04 59.58, 44.94 59.25, 15 60 M15 60 C6.13 60.59, -1.83 55.47, 0 45 M15 60 C4.11 59.34, 1.1 56.44, 0 45 M0 45 C0.22 33.36, -0.18 22.85, 0 15 M0 45 C-0.66 35.18, -0.32 24.37, 0 15 M0 15 C-1.33 4.46, 4.26 -1.2, 15 0 M0 15 C1.3 5.88, 3.32 1.25, 15 0" stroke="#2f9e44" stroke-width="2" fill="none"></path></g><g transform="translate(745.8200836181641 107.5) rotate(0 61.37994384765625 12.5)"><text x="61.37994384765625" y="0" font-family="Virgil, Segoe UI Emoji" font-size="20px" fill="#2f9e44" text-anchor="middle" style="white-space: pre;" direction="ltr" dominant-baseline="text-before-edge">UserContext</text></g><g stroke-linecap="round" transform="translate(517.9999542236328 90.40000915527344) rotate(0 99.20001220703125 30)"><path d="M15 0 C77.26 -1.36, 141.56 1.8, 183.4 0 M15 0 C75.91 -0.98, 137.26 -0.72, 183.4 0 M183.4 0 C192 -1.4, 200.35 4.41, 198.4 15 M183.4 0 C195.39 -1.52, 200.64 5.78, 198.4 15 M198.4 15 C200.09 25.61, 196.61 34.56, 198.4 45 M198.4 15 C197.92 20.9, 198.88 27.41, 198.4 45 M198.4 45 C200.19 54.33, 193.36 61.3, 183.4 60 M198.4 45 C196.32 56.76, 191.55 61, 183.4 60 M183.4 60 C140.77 59.61, 97.53 60.23, 15 60 M183.4 60 C144.19 59.76, 103.54 60.05, 15 60 M15 60 C5.09 61.5, 0.84 55.02, 0 45 M15 60 C4.12 57.85, 0.13 55.32, 0 45 M0 45 C0.53 35.59, -1.76 26.96, 0 15 M0 45 C1.17 34.48, 0.96 22.63, 0 15 M0 15 C0.05 6.62, 4.77 1.93, 15 0 M0 15 C-0.33 6.94, 5.7 -0.09, 15 0" stroke="#2f9e44" stroke-width="2" fill="none"></path></g><g transform="translate(532.9900360107422 107.90000915527344) rotate(0 84.20993041992188 12.5)"><text x="84.20993041992188" y="0" font-family="Virgil, Segoe UI Emoji" font-size="20px" fill="#2f9e44" text-anchor="middle" style="white-space: pre;" direction="ltr" dominant-baseline="text-before-edge">LanguageContext</text></g><g stroke-linecap="round" transform="translate(895.5999298095703 87.19999694824219) rotate(0 82 30)"><path d="M15 0 C48.86 2.75, 87.23 1.47, 149 0 M15 0 C56.55 -1.19, 97.14 -0.72, 149 0 M149 0 C160.51 -1.27, 164.06 3.98, 164 15 M149 0 C158.87 0.15, 163.07 6.12, 164 15 M164 15 C165.67 22.56, 162.54 31.27, 164 45 M164 15 C164.87 23.21, 163.22 30.77, 164 45 M164 45 C163.9 53.85, 158.13 59.12, 149 60 M164 45 C162.57 54.45, 158.49 62, 149 60 M149 60 C112.85 57.77, 78.72 59.78, 15 60 M149 60 C96.51 59.41, 42.57 59.84, 15 60 M15 60 C3.66 61.95, 0.41 55.52, 0 45 M15 60 C6.36 59.32, -0.73 55.26, 0 45 M0 45 C0.73 36.21, 1.11 28.79, 0 15 M0 45 C1 37.53, 0.17 30.94, 0 15 M0 15 C-0.89 4.4, 6.04 0.21, 15 0 M0 15 C1.35 6.73, 3.24 2.06, 15 0" stroke="#2f9e44" stroke-width="2" fill="none"></path></g><g transform="translate(908.3099975585938 104.69999694824219) rotate(0 69.28993225097656 12.5)"><text x="69.28993225097656" y="0" font-family="Virgil, Segoe UI Emoji" font-size="20px" fill="#2f9e44" text-anchor="middle" style="white-space: pre;" direction="ltr" dominant-baseline="text-before-edge">ThemeContext</text></g><g stroke-linecap="round" transform="translate(533.2571759905134 440.85720607212613) rotate(0 95.99999237060547 30)"><path d="M15 0 C77.18 2.87, 141 -0.02, 177 0 M15 0 C63.91 1.33, 112.02 1.21, 177 0 M177 0 C185.37 0.31, 190.64 3.82, 192 15 M177 0 C185.48 -1.67, 191.77 4.37, 192 15 M192 15 C190.64 23.26, 191.53 30.89, 192 45 M192 15 C193 25.89, 191.05 35.97, 192 45 M192 45 C191.65 54.95, 188.6 58.79, 177 60 M192 45 C191.3 56.39, 184.97 62.02, 177 60 M177 60 C142.22 59.03, 110.12 59.76, 15 60 M177 60 C142.02 59.91, 109.13 58.95, 15 60 M15 60 C6.57 58.84, -0.22 54.59, 0 45 M15 60 C7.12 62.09, 2.19 56.88, 0 45 M0 45 C-1.62 35.48, 0.62 29.52, 0 15 M0 45 C-0.72 34.62, -0.63 23.38, 0 15 M0 15 C-0.37 4.55, 4.3 -0.36, 15 0 M0 15 C2.11 4.55, 4.17 0.23, 15 0" stroke="#1e1e1e" stroke-width="2" fill="none"></path></g><g transform="translate(542.287243434361 458.35720607212613) rotate(0 86.96992492675781 12.5)"><text x="86.96992492675781" y="0" font-family="Virgil, Segoe UI Emoji" font-size="20px" fill="#1e1e1e" text-anchor="middle" style="white-space: pre;" direction="ltr" dominant-baseline="text-before-edge">GraphicsContainer</text></g><g stroke-linecap="round" transform="translate(1202.686061314174 570.8571624755859) rotate(0 95.99999237060547 30)"><path d="M15 0 C48.42 1.76, 84.61 1.59, 177 0 M15 0 C72.95 0.46, 128.97 0.07, 177 0 M177 0 C185.1 0.72, 191.67 6.56, 192 15 M177 0 C184.92 -2.19, 190.19 4.5, 192 15 M192 15 C193.1 24.01, 192.93 30.62, 192 45 M192 15 C192.31 23.9, 192.81 30.52, 192 45 M192 45 C190.39 54.44, 186.96 59.15, 177 60 M192 45 C191.73 53.38, 186.05 59.9, 177 60 M177 60 C140.43 59.44, 107.49 59.36, 15 60 M177 60 C129.96 61.92, 84.33 62.2, 15 60 M15 60 C6.74 59.16, -0.81 53.96, 0 45 M15 60 C6.96 61.72, -2.03 53.65, 0 45 M0 45 C-1.38 33.82, 0.72 21.21, 0 15 M0 45 C-0.6 37.65, -0.25 30.45, 0 15 M0 15 C-1.85 6.59, 6.21 -1.65, 15 0 M0 15 C-1.49 3.65, 2.88 2.27, 15 0" stroke="#1e1e1e" stroke-width="2" fill="none"></path></g><g transform="translate(1214.3961290631973 588.3571624755859) rotate(0 84.28992462158203 12.5)"><text x="84.28992462158203" y="0" font-family="Virgil, Segoe UI Emoji" font-size="20px" fill="#1e1e1e" text-anchor="middle" style="white-space: pre;" direction="ltr" dominant-baseline="text-before-edge">RevenuePayments</text></g><g stroke-linecap="round" transform="translate(1483.5429949079237 571.714357648577) rotate(0 95.99999237060547 30)"><path d="M15 0 C56.19 0.31, 100.63 -0.67, 177 0 M15 0 C58.08 1.09, 102.33 0.65, 177 0 M177 0 C186.25 0.3, 190.1 5.82, 192 15 M177 0 C187.04 -0.75, 194.21 5.93, 192 15 M192 15 C190.86 21.52, 193.37 29.05, 192 45 M192 15 C191.98 23.87, 191.85 35.08, 192 45 M192 45 C192.49 53.98, 185.84 58.73, 177 60 M192 45 C192.21 55.56, 185.04 58.6, 177 60 M177 60 C122.11 59.7, 68.07 59.81, 15 60 M177 60 C122.62 58.08, 67.79 57.98, 15 60 M15 60 C3.78 58.76, 0.47 53.52, 0 45 M15 60 C5.04 60.97, 1.33 55.96, 0 45 M0 45 C-0.94 34.9, 1.47 26.93, 0 15 M0 45 C-1.03 37.2, -0.57 27.54, 0 15 M0 15 C0.68 5.6, 6.22 0.01, 15 0 M0 15 C0.55 5.08, 6.2 -0.62, 15 0" stroke="#1e1e1e" stroke-width="2" fill="none"></path></g><g transform="translate(1527.5130342755995 589.214357648577) rotate(0 52.02995300292969 12.5)"><text x="52.02995300292969" y="0" font-family="Virgil, Segoe UI Emoji" font-size="20px" fill="#1e1e1e" text-anchor="middle" style="white-space: pre;" direction="ltr" dominant-baseline="text-before-edge">FilterPanel</text></g><g stroke-linecap="round" transform="translate(1200.1143886021202 703.1429290771484) rotate(0 95.99999237060547 30)"><path d="M15 0 C63.17 -0.34, 111.85 1.37, 177 0 M15 0 C48.05 1.45, 82.43 1.28, 177 0 M177 0 C185.27 -1.44, 193.99 5.66, 192 15 M177 0 C188.65 0.27, 192.91 2.77, 192 15 M192 15 C192.21 23.06, 193.75 33.69, 192 45 M192 15 C192.17 27.57, 192.08 38.56, 192 45 M192 45 C193.64 55.05, 185.86 58.36, 177 60 M192 45 C193.04 54.27, 185.35 58.57, 177 60 M177 60 C132.25 57.85, 87.34 58.47, 15 60 M177 60 C118.52 60.38, 59.87 61.36, 15 60 M15 60 C5.31 60.58, -1.14 54.38, 0 45 M15 60 C3.7 58.93, 0.84 54.12, 0 45 M0 45 C-1.7 40.01, 1.73 30.81, 0 15 M0 45 C-0.75 34.91, -0.21 23.86, 0 15 M0 15 C1.61 6.52, 6.16 -1.24, 15 0 M0 15 C-0.77 3.89, 6.28 -1.31, 15 0" stroke="#1e1e1e" stroke-width="2" fill="none"></path></g><g transform="translate(1239.114442007882 720.6429290771484) rotate(0 56.99993896484375 12.5)"><text x="56.99993896484375" y="0" font-family="Virgil, Segoe UI Emoji" font-size="20px" fill="#1e1e1e" text-anchor="middle" style="white-space: pre;" direction="ltr" dominant-baseline="text-before-edge">TopProduct</text></g><g stroke-linecap="round" transform="translate(1410.1143886021202 704.0001242501395) rotate(0 95.99999237060547 30)"><path d="M15 0 C70.76 -2.85, 129.83 -2.11, 177 0 M15 0 C71.51 1.5, 126.75 1.28, 177 0 M177 0 C187.79 -1.94, 192.04 4.66, 192 15 M177 0 C189.22 0.3, 190.85 7.07, 192 15 M192 15 C191.37 25.28, 193.6 34.96, 192 45 M192 15 C191.67 22.36, 192.7 31.04, 192 45 M192 45 C190.57 53.76, 186.41 59.95, 177 60 M192 45 C190.61 53.95, 185.65 57.7, 177 60 M177 60 C134.08 62.06, 87.53 62.71, 15 60 M177 60 C121.59 60.16, 66.75 60, 15 60 M15 60 C5.73 59.24, -1.41 53.21, 0 45 M15 60 C4.32 57.74, 2.18 56.68, 0 45 M0 45 C-0.39 35.05, 0.59 27.77, 0 15 M0 45 C0.34 36.07, -0.58 27.91, 0 15 M0 15 C1.12 3.86, 3.27 0.46, 15 0 M0 15 C0.36 5.9, 6.83 0.58, 15 0" stroke="#1e1e1e" stroke-width="2" fill="none"></path></g><g transform="translate(1443.7744380405968 721.5001242501395) rotate(0 62.339942932128906 12.5)"><text x="62.339942932128906" y="0" font-family="Virgil, Segoe UI Emoji" font-size="20px" fill="#1e1e1e" text-anchor="middle" style="white-space: pre;" direction="ltr" dominant-baseline="text-before-edge">SalesMapping</text></g><g stroke-linecap="round" transform="translate(1625.828674316406 703.7143925258091) rotate(0 95.99999237060547 30)"><path d="M15 0 C52.85 3.4, 94.24 2.84, 177 0 M15 0 C65.51 1.4, 116.94 1.7, 177 0 M177 0 C186 1.8, 192.58 6.94, 192 15 M177 0 C186.72 -1.06, 192.48 6.51, 192 15 M192 15 C191.97 23.21, 190.28 34.6, 192 45 M192 15 C191.49 23.03, 191.18 30.65, 192 45 M192 45 C190.83 53, 186.45 61.28, 177 60 M192 45 C193.54 56.39, 188.13 58.62, 177 60 M177 60 C115.83 59.11, 52.88 59.12, 15 60 M177 60 C135.24 58.49, 94.59 58.4, 15 60 M15 60 C6.9 61.46, -0.42 55.97, 0 45 M15 60 C4.68 59.72, -1.82 55.84, 0 45 M0 45 C1.59 37.9, -1.17 27.83, 0 15 M0 45 C-1.03 37.68, -0.01 30.3, 0 15 M0 15 C1.59 5.5, 5.18 0.99, 15 0 M0 15 C1.13 6.55, 3.44 -0.68, 15 0" stroke="#1e1e1e" stroke-width="2" fill="none"></path></g><g transform="translate(1662.6787109374998 721.2143925258091) rotate(0 59.14995574951172 12.5)"><text x="59.14995574951172" y="0" font-family="Virgil, Segoe UI Emoji" font-size="20px" fill="#1e1e1e" text-anchor="middle" style="white-space: pre;" direction="ltr" dominant-baseline="text-before-edge">SalesBranch</text></g><g stroke-linecap="round" transform="translate(956.6856951032366 572.8571101597377) rotate(0 115.42857251848488 30)"><path d="M15 0 C80.49 2.2, 146.81 0.24, 215.86 0 M15 0 C75.96 0.05, 136.41 -1.51, 215.86 0 M215.86 0 C224.28 -0.43, 229.76 6.92, 230.86 15 M215.86 0 C224.64 0.94, 232.76 5.74, 230.86 15 M230.86 15 C228.99 25.86, 232.09 37.23, 230.86 45 M230.86 15 C230.59 20.66, 230.5 26.48, 230.86 45 M230.86 45 C230.03 54.91, 224.16 58.96, 215.86 60 M230.86 45 C229.8 53.04, 226.07 60.26, 215.86 60 M215.86 60 C155.99 59.35, 94.33 61.16, 15 60 M215.86 60 C137.29 58.78, 60.22 59.92, 15 60 M15 60 C3.24 58.82, 1.51 54.69, 0 45 M15 60 C3.88 58.36, 0.09 55.77, 0 45 M0 45 C-0.94 36.94, 0.17 30.53, 0 15 M0 45 C0.88 34.71, -0.37 25.49, 0 15 M0 15 C-1.84 6.97, 4.9 -1.56, 15 0 M0 15 C0.02 4.55, 6.62 -1.61, 15 0" stroke="#1e1e1e" stroke-width="2" fill="none"></path></g><g transform="translate(966.6543753487723 590.3571101597377) rotate(0 105.45989227294916 12.5)"><text x="105.45989227294922" y="0" font-family="Virgil, Segoe UI Emoji" font-size="20px" fill="#1e1e1e" text-anchor="middle" style="white-space: pre;" direction="ltr" dominant-baseline="text-before-edge">CustomerSatisfaction</text></g><g stroke-linecap="round" transform="translate(744.971479143415 572.5714656284877) rotate(0 95.99999237060547 30)"><path d="M15 0 C60.28 1.21, 105.67 -0.27, 177 0 M15 0 C47.62 1.31, 80.8 0.76, 177 0 M177 0 C188.65 0.64, 192.91 4.5, 192 15 M177 0 C187.43 -2.06, 192.57 6.5, 192 15 M192 15 C191.15 26.21, 190.85 37.27, 192 45 M192 15 C191.03 21.37, 191.42 27.92, 192 45 M192 45 C192.19 55.23, 187.11 59.76, 177 60 M192 45 C192.1 56.85, 186.06 61.41, 177 60 M177 60 C117.86 60.59, 59.35 63.11, 15 60 M177 60 C117.01 58.89, 55.02 58.33, 15 60 M15 60 C5.08 60.67, -1.26 53.9, 0 45 M15 60 C5.98 58.73, -1.09 55.01, 0 45 M0 45 C1.54 37.58, -1.7 26.44, 0 15 M0 45 C0.22 36.97, 0.29 30.32, 0 15 M0 15 C1.41 3.6, 5.73 -0.78, 15 0 M0 15 C-0.67 6.17, 3.52 0.28, 15 0" stroke="#1e1e1e" stroke-width="2" fill="none"></path></g><g transform="translate(773.6715294974189 590.0714656284877) rotate(0 67.29994201660156 12.5)"><text x="67.29994201660156" y="0" font-family="Virgil, Segoe UI Emoji" font-size="20px" fill="#1e1e1e" text-anchor="middle" style="white-space: pre;" direction="ltr" dominant-baseline="text-before-edge">TotalRevenue</text></g><g stroke-linecap="round" transform="translate(473.54290771484386 577.7144186837332) rotate(0 95.99999237060547 30)"><path d="M15 0 C56.37 1.45, 100.9 0.36, 177 0 M15 0 C64.27 2.02, 112.47 1.52, 177 0 M177 0 C187.15 0.55, 191.44 5.87, 192 15 M177 0 C189.05 1.3, 190.32 6.66, 192 15 M192 15 C192.33 24.23, 191.82 33.49, 192 45 M192 15 C192.61 22.04, 192.14 31.18, 192 45 M192 45 C193.15 54.39, 186.26 59.87, 177 60 M192 45 C193.44 56.48, 184.78 61.91, 177 60 M177 60 C124.88 63.18, 74.39 61.37, 15 60 M177 60 C130.51 62.05, 82.52 62.38, 15 60 M15 60 C6.53 59.63, -1.81 54.14, 0 45 M15 60 C2.81 58.33, -1.41 53.63, 0 45 M0 45 C1.16 36.75, -0.17 29.71, 0 15 M0 45 C1.12 39.25, -0.48 32.17, 0 15 M0 15 C0.57 3.17, 5.37 0.24, 15 0 M0 15 C-1.97 2.88, 6.68 0.88, 15 0" stroke="#1e1e1e" stroke-width="2" fill="none"></path></g><g transform="translate(491.3629837036134 595.2144186837332) rotate(0 78.17991638183594 12.5)"><text x="78.17991638183594" y="0" font-family="Virgil, Segoe UI Emoji" font-size="20px" fill="#1e1e1e" text-anchor="middle" style="white-space: pre;" direction="ltr" dominant-baseline="text-before-edge">CustomerInsight</text></g><g stroke-linecap="round" transform="translate(267.8285348074776 583.4286608014787) rotate(0 95.99999237060547 30)"><path d="M15 0 C58.9 -0.07, 100.51 1.01, 177 0 M15 0 C52.08 -0.12, 90.26 0.04, 177 0 M177 0 C187.68 -0.39, 190.58 6.52, 192 15 M177 0 C185.8 -0.54, 191.41 5.53, 192 15 M192 15 C193.76 22.24, 190.54 27.54, 192 45 M192 15 C191.87 25.23, 191.75 34.91, 192 45 M192 45 C192.46 55.54, 187.07 58.25, 177 60 M192 45 C190.19 55.71, 185.61 58.13, 177 60 M177 60 C144.57 59.95, 107.07 57.52, 15 60 M177 60 C112.43 60.44, 48.52 60.54, 15 60 M15 60 C3.49 60.82, -0.64 53.39, 0 45 M15 60 C4.74 61.32, -0.49 55.84, 0 45 M0 45 C-1.26 35.46, 0.8 20.86, 0 15 M0 45 C1.01 35.07, 0.51 23.05, 0 15 M0 15 C-2 5.43, 3.52 0.57, 15 0 M0 15 C1.04 6.62, 5.69 0.56, 15 0" stroke="#1e1e1e" stroke-width="2" fill="none"></path></g><g transform="translate(306.9185769217354 600.9286608014787) rotate(0 56.909950256347656 12.5)"><text x="56.909950256347656" y="0" font-family="Virgil, Segoe UI Emoji" font-size="20px" fill="#1e1e1e" text-anchor="middle" style="white-space: pre;" direction="ltr" dominant-baseline="text-before-edge">TodaySales</text></g><g stroke-linecap="round" transform="translate(25.599990844726562 285.19996643066406) rotate(0 85.6000213623047 60)"><path d="M107.5 15.25 C125.2 27.17, 139.17 37.08, 149.7 45.75 M107.5 15.25 C120 24.47, 131.4 31.86, 149.7 45.75 M149.7 45.75 C169.83 59.09, 171.93 62.76, 149.7 76.25 M149.7 45.75 C173.23 60.62, 173.14 60.02, 149.7 76.25 M149.7 76.25 C138.63 85.28, 122.57 94.3, 107.5 104.75 M149.7 76.25 C140.74 83.39, 129.82 89.24, 107.5 104.75 M107.5 104.75 C85.41 119.47, 84.42 120.31, 64.5 104.75 M107.5 104.75 C87.49 118.72, 85.89 121.26, 64.5 104.75 M64.5 104.75 C48.62 94.07, 33.39 85.78, 21.5 76.25 M64.5 104.75 C52.63 96.97, 43.46 90.36, 21.5 76.25 M21.5 76.25 C0.41 60.22, 0.51 60.19, 21.5 45.75 M21.5 76.25 C1.61 60.89, -0.2 61.99, 21.5 45.75 M21.5 45.75 C32.23 38.55, 40.97 33.59, 64.5 15.25 M21.5 45.75 C31.08 37.82, 41.46 31, 64.5 15.25 M64.5 15.25 C84.99 0.03, 85.03 0.92, 107.5 15.25 M64.5 15.25 C85.69 -2.18, 85.73 -0.39, 107.5 15.25" stroke="#f08c00" stroke-width="2" fill="none"></path></g><g transform="translate(83.89002990722656 332.69996643066406) rotate(0 27.509971618652344 12.5)"><text x="27.509971618652344" y="0" font-family="Virgil, Segoe UI Emoji" font-size="20px" fill="#f08c00" text-anchor="middle" style="white-space: pre;" direction="ltr" dominant-baseline="text-before-edge">pages</text></g><g stroke-linecap="round" transform="translate(10 427.7999038696289) rotate(0 98.80000305175781 56.399993896484375)"><path d="M123.75 14.25 C142.29 25.32, 161.53 36.6, 172.85 42.75 M123.75 14.25 C141.75 25.19, 157.57 33.84, 172.85 42.75 M172.85 42.75 C199.3 56.38, 197.14 57.24, 172.85 71.25 M172.85 42.75 C196.5 56.79, 196.45 57.12, 172.85 71.25 M172.85 71.25 C160.64 76.15, 149.65 85.86, 123.75 98.55 M172.85 71.25 C158.54 79.32, 143.37 87.7, 123.75 98.55 M123.75 98.55 C99.69 113.27, 97.81 113.67, 74.25 98.55 M123.75 98.55 C101.07 114.74, 98.28 113.38, 74.25 98.55 M74.25 98.55 C57.57 87.52, 39.43 80.26, 24.75 71.25 M74.25 98.55 C63.22 93.31, 52.92 87.4, 24.75 71.25 M24.75 71.25 C1.4 58, -1.93 55.3, 24.75 42.75 M24.75 71.25 C-0.21 57.3, 0.26 55.89, 24.75 42.75 M24.75 42.75 C37.36 35.5, 52.34 27.97, 74.25 14.25 M24.75 42.75 C39.91 33.12, 53.79 25.01, 74.25 14.25 M74.25 14.25 C98.21 -1.86, 97.38 -1.45, 123.75 14.25 M74.25 14.25 C97.59 -0.73, 97.75 -1.88, 123.75 14.25" stroke="#f08c00" stroke-width="2" fill="none"></path></g><g transform="translate(66.3000259399414 473.9999008178711) rotate(0 42.5999755859375 10)"><text x="42.5999755859375" y="0" font-family="Virgil, Segoe UI Emoji" font-size="16px" fill="#f08c00" text-anchor="middle" style="white-space: pre;" direction="ltr" dominant-baseline="text-before-edge">componnets</text></g><g stroke-linecap="round"><g transform="translate(342.85715811593184 383.74285670689164) rotate(0 110.28573172433045 27.999986921037987)"><path d="M0.46 1.07 C37.17 10.61, 184.02 48.06, 220.57 57.06 M-0.75 0.59 C35.76 9.83, 182.45 46.27, 219.63 55.49" stroke="#f08c00" stroke-width="2" fill="none"></path></g><g transform="translate(342.85715811593184 383.74285670689164) rotate(0 110.28573172433045 27.999986921037987)"><path d="M189.8 58.65 C201.4 57.5, 211.19 55.19, 219.63 55.49 M189.8 58.65 C196.41 57.74, 202.06 57.3, 219.63 55.49" stroke="#f08c00" stroke-width="2" fill="none"></path></g><g transform="translate(342.85715811593184 383.74285670689164) rotate(0 110.28573172433045 27.999986921037987)"><path d="M194.74 38.74 C204.69 44.16, 212.85 48.39, 219.63 55.49 M194.74 38.74 C200.37 42.2, 204.92 46.18, 219.63 55.49" stroke="#f08c00" stroke-width="2" fill="none"></path></g></g><mask></mask><g stroke-linecap="round" transform="translate(444.57154846191395 532.3143288748605) rotate(0 20 21)"><path d="M21.74 0.3 C25.71 0.31, 30.61 2.97, 33.56 6.05 C36.51 9.13, 38.9 14.36, 39.44 18.78 C39.97 23.21, 39.01 28.81, 36.79 32.59 C34.56 36.38, 30.23 40.31, 26.08 41.51 C21.92 42.72, 15.85 41.71, 11.85 39.81 C7.85 37.9, 3.9 33.99, 2.07 30.08 C0.24 26.16, -0.13 20.67, 0.89 16.32 C1.92 11.97, 4.72 6.68, 8.23 4 C11.74 1.31, 19.6 0.74, 21.97 0.22 C24.34 -0.31, 22.45 0.54, 22.47 0.83 M20.19 0.54 C24.33 0.3, 29.91 2.28, 33.1 5.12 C36.29 7.96, 38.6 13.27, 39.34 17.57 C40.08 21.87, 39.57 27.07, 37.52 30.92 C35.48 34.77, 31.23 39.16, 27.08 40.68 C22.93 42.21, 16.8 41.5, 12.64 40.08 C8.48 38.67, 4.3 35.95, 2.12 32.2 C-0.07 28.46, -1.38 22.06, -0.44 17.61 C0.5 13.16, 4.26 8.49, 7.76 5.49 C11.27 2.49, 18.64 0.56, 20.6 -0.36 C22.56 -1.29, 19.65 -0.46, 19.53 -0.08" stroke="#1971c2" stroke-width="2" fill="none"></path></g><g transform="translate(462.2614135706049 543.465086469943) rotate(0 2.167999267578125 10)"><text x="2.167999267578125" y="0" font-family="Virgil, Segoe UI Emoji" font-size="16px" fill="#1971c2" text-anchor="middle" style="white-space: pre;" direction="ltr" dominant-baseline="text-before-edge">1</text></g><g stroke-linecap="round" transform="translate(1557.428778512137 500.0286058698382) rotate(0 20 21)"><path d="M15.5 0.2 C19.38 -0.97, 25.75 0.73, 29.52 2.8 C33.29 4.88, 36.51 8.51, 38.13 12.66 C39.76 16.81, 40.44 23.3, 39.26 27.69 C38.08 32.08, 34.63 36.57, 31.06 39 C27.48 41.43, 22.18 42.85, 17.81 42.27 C13.44 41.69, 7.75 38.89, 4.84 35.5 C1.92 32.11, 0.39 26.55, 0.32 21.93 C0.25 17.31, 1.69 11.36, 4.39 7.81 C7.09 4.25, 14.35 1.87, 16.52 0.61 C18.68 -0.65, 17.3 -0.05, 17.38 0.25 M22.52 -0.14 C26.74 0.01, 32.14 3.2, 34.96 6.54 C37.77 9.88, 39.31 15.3, 39.4 19.89 C39.48 24.48, 37.96 30.56, 35.47 34.08 C32.98 37.6, 28.4 39.95, 24.46 41.02 C20.51 42.09, 15.54 42.41, 11.79 40.49 C8.05 38.58, 3.87 33.75, 2 29.54 C0.13 25.34, -0.65 19.66, 0.56 15.26 C1.76 10.86, 5.7 5.75, 9.21 3.13 C12.73 0.51, 19.47 0.07, 21.65 -0.47 C23.83 -1.01, 22.37 -0.64, 22.31 -0.09" stroke="#1971c2" stroke-width="2" fill="none"></path></g><g transform="translate(1571.8386448415308 511.1793634649207) rotate(0 5.447998046875 10)"><text x="5.447998046875" y="0" font-family="Virgil, Segoe UI Emoji" font-size="16px" fill="#1971c2" text-anchor="middle" style="white-space: pre;" direction="ltr" dominant-baseline="text-before-edge">3</text></g><g stroke-linecap="round" transform="translate(1097.7144230433873 502.0286407470703) rotate(0 20 21)"><path d="M16.66 0.71 C20.72 -0.28, 26.34 1.11, 30.09 3.2 C33.85 5.29, 37.67 9.08, 39.19 13.26 C40.71 17.44, 40.71 23.96, 39.22 28.3 C37.73 32.64, 34.05 37.07, 30.24 39.31 C26.43 41.55, 20.55 42.51, 16.35 41.74 C12.16 40.98, 7.86 38.12, 5.08 34.72 C2.29 31.31, -0.28 25.81, -0.36 21.33 C-0.44 16.86, 1.64 11.36, 4.61 7.87 C7.58 4.37, 15.01 1.64, 17.46 0.38 C19.91 -0.89, 19.18 -0.05, 19.31 0.27 M16.99 0.03 C20.83 -0.81, 25.7 0.99, 29.43 3.3 C33.16 5.61, 37.77 9.81, 39.36 13.88 C40.94 17.95, 40.43 23.46, 38.92 27.72 C37.41 31.98, 34.07 37.17, 30.3 39.42 C26.53 41.67, 20.67 41.98, 16.32 41.23 C11.98 40.48, 7.06 38.34, 4.24 34.9 C1.41 31.46, -0.78 25.11, -0.63 20.58 C-0.48 16.05, 2.43 11.08, 5.14 7.72 C7.85 4.37, 13.78 1.64, 15.64 0.44 C17.5 -0.75, 16.2 0.34, 16.3 0.57" stroke="#1971c2" stroke-width="2" fill="none"></path></g><g transform="translate(1111.8762882741485 513.1793983421528) rotate(0 5.6959991455078125 10)"><text x="5.6959991455078125" y="0" font-family="Virgil, Segoe UI Emoji" font-size="16px" fill="#1971c2" text-anchor="middle" style="white-space: pre;" direction="ltr" dominant-baseline="text-before-edge">2</text></g><g stroke-linecap="round"><g transform="translate(561.1428549630301 508.3142591203962) rotate(0 -33.14283098493303 19.428601946149513)"><path d="M-0.75 0.57 C-11.62 7.08, -55.3 32.12, -66.29 38.69 M1.06 -0.18 C-9.88 6.55, -55.79 33.74, -67.25 40.14" stroke="#1971c2" stroke-width="2" fill="none"></path></g><g transform="translate(561.1428549630301 508.3142591203962) rotate(0 -33.14283098493303 19.428601946149513)"><path d="M-47.98 17.14 C-51.21 21.92, -56.55 26.15, -67.25 40.14 M-47.98 17.14 C-56.18 25.33, -63.49 36, -67.25 40.14" stroke="#1971c2" stroke-width="2" fill="none"></path></g><g transform="translate(561.1428549630301 508.3142591203962) rotate(0 -33.14283098493303 19.428601946149513)"><path d="M-37.71 34.91 C-43.08 35.83, -50.61 36.27, -67.25 40.14 M-37.71 34.91 C-50.02 36.06, -61.38 39.75, -67.25 40.14" stroke="#1971c2" stroke-width="2" fill="none"></path></g></g><mask></mask><g stroke-linecap="round"><g transform="translate(743.9999978201729 496.8856876918247) rotate(0 165.1428658621652 18.28571864536832)"><path d="M-1.04 1.09 C53.76 7.26, 273.74 31.13, 329.1 37.24 M0.62 0.61 C55.74 6.42, 276.17 29.56, 331.19 35.47" stroke="#1971c2" stroke-width="2" fill="none"></path></g><g transform="translate(743.9999978201729 496.8856876918247) rotate(0 165.1428658621652 18.28571864536832)"><path d="M302.08 42.7 C313.37 38.62, 322.16 39.59, 331.19 35.47 M302.08 42.7 C313.93 40.35, 324.37 37.71, 331.19 35.47" stroke="#1971c2" stroke-width="2" fill="none"></path></g><g transform="translate(743.9999978201729 496.8856876918247) rotate(0 165.1428658621652 18.28571864536832)"><path d="M304.24 22.29 C314.87 24.85, 322.95 32.48, 331.19 35.47 M304.24 22.29 C315.39 28.06, 324.97 33.55, 331.19 35.47" stroke="#1971c2" stroke-width="2" fill="none"></path></g></g><mask></mask><g stroke-linecap="round"><g transform="translate(738.2857121058871 482.0285535539899) rotate(0 401.14288330078125 15.428619384765625)"><path d="M0.16 -0.5 C134.12 5, 668.92 26.75, 802.66 32.01 M-1.22 -1.81 C132.72 3.47, 668.04 24.78, 801.9 30.49" stroke="#1971c2" stroke-width="2" fill="none"></path></g><g transform="translate(738.2857121058871 482.0285535539899) rotate(0 401.14288330078125 15.428619384765625)"><path d="M773.31 39.59 C778.4 38.3, 787 36.3, 801.9 30.49 M773.31 39.59 C783.19 36.18, 791.71 33, 801.9 30.49" stroke="#1971c2" stroke-width="2" fill="none"></path></g><g transform="translate(738.2857121058871 482.0285535539899) rotate(0 401.14288330078125 15.428619384765625)"><path d="M774.15 19.08 C778.9 21.99, 787.33 24.18, 801.9 30.49 M774.15 19.08 C783.86 22.12, 792.12 25.38, 801.9 30.49" stroke="#1971c2" stroke-width="2" fill="none"></path></g></g><mask></mask><g stroke-linecap="round"><g transform="translate(1482.2856946672712 645.4571598597935) rotate(0 -53.14278738839289 21.714259556361583)"><path d="M-0.77 -1.03 C-18.38 6.32, -88.51 35.97, -106.27 43.2 M1.03 1.04 C-16.69 8.66, -89.54 37.61, -107.21 44.61" stroke="#1971c2" stroke-width="2" fill="none"></path></g><g transform="translate(1482.2856946672712 645.4571598597935) rotate(0 -53.14278738839289 21.714259556361583)"><path d="M-84.8 24.66 C-92.31 29.57, -96.62 32.84, -107.21 44.61 M-84.8 24.66 C-88.96 29.5, -94.67 31.7, -107.21 44.61" stroke="#1971c2" stroke-width="2" fill="none"></path></g><g transform="translate(1482.2856946672712 645.4571598597935) rotate(0 -53.14278738839289 21.714259556361583)"><path d="M-77.22 43.73 C-86.49 43.79, -92.7 42.26, -107.21 44.61 M-77.22 43.73 C-82.99 44.58, -90.26 42.86, -107.21 44.61" stroke="#1971c2" stroke-width="2" fill="none"></path></g></g><mask></mask><g stroke-linecap="round"><g transform="translate(1581.714405604771 646.5999995640345) rotate(0 -12.571498325892776 25.142865862165195)"><path d="M0.13 -1.17 C-4.35 7.16, -21.94 41.29, -26.07 49.97 M-1.26 0.83 C-5.44 9.33, -19.86 43.33, -23.84 51.35" stroke="#1971c2" stroke-width="2" fill="none"></path></g><g transform="translate(1581.714405604771 646.5999995640345) rotate(0 -12.571498325892776 25.142865862165195)"><path d="M-21.65 23.32 C-24.4 32.11, -23.78 44.8, -23.84 51.35 M-21.65 23.32 C-21.75 33.95, -23.6 42.28, -23.84 51.35" stroke="#1971c2" stroke-width="2" fill="none"></path></g><g transform="translate(1581.714405604771 646.5999995640345) rotate(0 -12.571498325892776 25.142865862165195)"><path d="M-4.15 31.29 C-13.35 37.16, -19.18 46.91, -23.84 51.35 M-4.15 31.29 C-10.39 39.21, -18.43 44.72, -23.84 51.35" stroke="#1971c2" stroke-width="2" fill="none"></path></g></g><mask></mask><g stroke-linecap="round"><g transform="translate(1617.142872401646 645.4571598597935) rotate(0 37.71432059151789 25.142865862165138)"><path d="M-0.66 0.26 C12.12 8.65, 63.35 41.68, 76.06 49.93 M1.2 -0.65 C13.92 7.95, 63.15 42.7, 75.45 51.28" stroke="#1971c2" stroke-width="2" fill="none"></path></g><g transform="translate(1617.142872401646 645.4571598597935) rotate(0 37.71432059151789 25.142865862165138)"><path d="M46.48 43.48 C54.18 46.66, 60.45 47.91, 75.45 51.28 M46.48 43.48 C53.97 45.23, 61.36 48.32, 75.45 51.28" stroke="#1971c2" stroke-width="2" fill="none"></path></g><g transform="translate(1617.142872401646 645.4571598597935) rotate(0 37.71432059151789 25.142865862165138)"><path d="M58.27 26.68 C62.93 34.03, 66.23 39.51, 75.45 51.28 M58.27 26.68 C62.61 32.68, 66.99 40.06, 75.45 51.28" stroke="#1971c2" stroke-width="2" fill="none"></path></g></g><mask></mask><g stroke-linecap="round"><g transform="translate(737.1428724016462 148.31428091866627) rotate(0 -230.2857099260603 142.28571210588726)"><path d="M-0.36 0.44 C-76.98 47.83, -384.18 236.29, -460.77 283.64 M1.65 -0.37 C-75.05 47.2, -384.82 236.98, -461.82 284.69" stroke="#e03131" stroke-width="2" fill="none"></path></g><g transform="translate(737.1428724016462 148.31428091866627) rotate(0 -230.2857099260603 142.28571210588726)"><path d="M-443.19 261.18 C-446.57 265.84, -452.85 272.33, -461.82 284.69 M-443.19 261.18 C-449.13 268.85, -453.83 274.51, -461.82 284.69" stroke="#e03131" stroke-width="2" fill="none"></path></g><g transform="translate(737.1428724016462 148.31428091866627) rotate(0 -230.2857099260603 142.28571210588726)"><path d="M-432.43 278.65 C-438.02 279.54, -446.61 282.27, -461.82 284.69 M-432.43 278.65 C-441.56 281.08, -449.5 281.47, -461.82 284.69" stroke="#e03131" stroke-width="2" fill="none"></path></g></g><mask></mask><g stroke-linecap="round"><g transform="translate(740.5714787074496 149.45712062290733) rotate(0 -153.14287458147317 146.85715811593192)"><path d="M-0.32 0.86 C-51.26 49.81, -254.68 244.55, -305.49 293.18 M1.71 0.27 C-49.32 49.41, -254.84 245.59, -306.03 294.43" stroke="#e03131" stroke-width="2" fill="none"></path></g><g transform="translate(740.5714787074496 149.45712062290733) rotate(0 -153.14287458147317 146.85715811593192)"><path d="M-292.72 267.55 C-295.52 277.18, -301.98 285.99, -306.03 294.43 M-292.72 267.55 C-296.46 272.66, -298.67 277.96, -306.03 294.43" stroke="#e03131" stroke-width="2" fill="none"></path></g><g transform="translate(740.5714787074496 149.45712062290733) rotate(0 -153.14287458147317 146.85715811593192)"><path d="M-278.55 282.39 C-285.69 287.38, -296.55 291.58, -306.03 294.43 M-278.55 282.39 C-285.15 284.35, -290.33 286.55, -306.03 294.43" stroke="#e03131" stroke-width="2" fill="none"></path></g></g><mask></mask><g stroke-linecap="round"><g transform="translate(600.0000152587891 150.59998212541848) rotate(0 -92.5714111328125 142.85714285714283)"><path d="M0.72 -0.48 C-30.02 47.18, -154.04 237.89, -184.98 285.6 M-0.36 -1.78 C-31.19 46.11, -154.97 238.92, -185.84 287.07" stroke="#e03131" stroke-width="2" fill="none"></path></g><g transform="translate(600.0000152587891 150.59998212541848) rotate(0 -92.5714111328125 142.85714285714283)"><path d="M-179.25 257.81 C-181.83 265.59, -182.9 273.17, -185.84 287.07 M-179.25 257.81 C-180.1 266.77, -183.88 276.25, -185.84 287.07" stroke="#e03131" stroke-width="2" fill="none"></path></g><g transform="translate(600.0000152587891 150.59998212541848) rotate(0 -92.5714111328125 142.85714285714283)"><path d="M-161.98 268.89 C-168.94 273.95, -174.41 278.7, -185.84 287.07 M-161.98 268.89 C-168.18 274.44, -177.24 280.53, -185.84 287.07" stroke="#e03131" stroke-width="2" fill="none"></path></g></g><mask></mask><g stroke-linecap="round" transform="translate(943.0000457763672 235.34997367858892) rotate(0 75.49999237060547 27.00000762939453)"><path d="M13.5 0 C58.95 -1.46, 101.93 -2.02, 137.5 0 M13.5 0 C61.5 0.33, 110.14 0.41, 137.5 0 M137.5 0 C148.44 0.48, 150.07 3.54, 151 13.5 M137.5 0 C147.53 1.03, 151.48 4.34, 151 13.5 M151 13.5 C152.53 21.15, 152.94 25.23, 151 40.5 M151 13.5 C150.66 18.49, 151.63 24.5, 151 40.5 M151 40.5 C151.31 49.85, 144.84 55.73, 137.5 54 M151 40.5 C152.61 47.34, 145.32 51.99, 137.5 54 M137.5 54 C95.38 56.19, 55.84 54.77, 13.5 54 M137.5 54 C99.91 55.38, 63.82 55.58, 13.5 54 M13.5 54 C5.9 52.75, -0.22 48.29, 0 40.5 M13.5 54 C4.31 55.15, 1.07 51.46, 0 40.5 M0 40.5 C-0.14 32.23, -1.3 27.33, 0 13.5 M0 40.5 C-0.41 35.5, 0.68 28.71, 0 13.5 M0 13.5 C0.15 4.78, 6.09 -0.56, 13.5 0 M0 13.5 C0.92 2.57, 4.98 1.62, 13.5 0" stroke="#f08c00" stroke-width="2" fill="none"></path></g><g transform="translate(964.2120742797852 252.34998130798346) rotate(0 54.2879638671875 10)"><text x="54.2879638671875" y="0" font-family="Virgil, Segoe UI Emoji" font-size="16px" fill="#f08c00" text-anchor="middle" style="white-space: pre;" direction="ltr" dominant-baseline="text-before-edge">privateRouter</text></g><g stroke-linecap="round"><g transform="translate(887.0000610351562 260.3499736785889) rotate(0 22.5 1.4999961853027344)"><path d="M-0.08 -0.53 C7.4 -0.01, 37.1 2.12, 44.56 2.79 M-0.78 0.39 C6.89 1.01, 37.8 3.01, 45.56 3.38" stroke="#f08c00" stroke-width="2" fill="none"></path></g><g transform="translate(887.0000610351562 260.3499736785889) rotate(0 22.5 1.4999961853027344)"><path d="M23.96 9.86 C28.3 7.48, 34.16 6.07, 45.56 3.38 M23.96 9.86 C31.75 6.9, 40.65 4.68, 45.56 3.38" stroke="#f08c00" stroke-width="2" fill="none"></path></g><g transform="translate(887.0000610351562 260.3499736785889) rotate(0 22.5 1.4999961853027344)"><path d="M24.85 -5.54 C28.93 -4.16, 34.57 -1.8, 45.56 3.38 M24.85 -5.54 C32.38 -2.63, 40.94 1, 45.56 3.38" stroke="#f08c00" stroke-width="2" fill="none"></path></g></g><mask></mask><g stroke-linecap="round"><g transform="translate(1122.0000610351562 276.34995841979986) rotate(0 15.499992370605469 13.500003814697266)"><path d="M1.01 -0.72 C6.36 3.85, 27.17 22.35, 32.18 27.08 M0.08 1.51 C5.37 6.33, 26.81 24.63, 31.85 28.66" stroke="#f08c00" stroke-width="2" fill="none"></path></g><g transform="translate(1122.0000610351562 276.34995841979986) rotate(0 15.499992370605469 13.500003814697266)"><path d="M12.51 21.71 C17.22 25.65, 24.49 25.95, 31.85 28.66 M12.51 21.71 C19.53 24.5, 25.83 26.49, 31.85 28.66" stroke="#f08c00" stroke-width="2" fill="none"></path></g><g transform="translate(1122.0000610351562 276.34995841979986) rotate(0 15.499992370605469 13.500003814697266)"><path d="M21.5 10.9 C23.42 18.23, 27.93 21.85, 31.85 28.66 M21.5 10.9 C25.23 17.59, 28.33 23.45, 31.85 28.66" stroke="#f08c00" stroke-width="2" fill="none"></path></g></g><mask></mask><g stroke-linecap="round"><g transform="translate(888.0000457763672 288.3499660491944) rotate(0 37.5 10)"><path d="M0.22 -1.2 C12.63 1.93, 61.18 16.08, 73.8 19.48 M-1.13 0.79 C11.7 4.01, 63.08 17.52, 75.89 20.75" stroke="#2f9e44" stroke-width="2" fill="none"></path></g><g transform="translate(888.0000457763672 288.3499660491944) rotate(0 37.5 10)"><path d="M46.03 23.64 C51.27 20.88, 59.66 23.76, 75.89 20.75 M46.03 23.64 C53.96 23.6, 59.55 22.74, 75.89 20.75" stroke="#2f9e44" stroke-width="2" fill="none"></path></g><g transform="translate(888.0000457763672 288.3499660491944) rotate(0 37.5 10)"><path d="M51.15 3.77 C55.27 5.85, 62.41 13.56, 75.89 20.75 M51.15 3.77 C57.78 8.41, 62.15 12.24, 75.89 20.75" stroke="#2f9e44" stroke-width="2" fill="none"></path></g></g><mask></mask><g stroke-linecap="round"><g transform="translate(838.0000457763672 293.3499660491944) rotate(0 4.500007629394531 7.000007629394531)"><path d="M0.17 0.4 C1.67 2.69, 7.99 11.71, 9.4 14.04 M-0.4 0.12 C1.03 2.49, 7.49 12.53, 9.17 14.75" stroke="#2f9e44" stroke-width="2" fill="none"></path></g><g transform="translate(838.0000457763672 293.3499660491944) rotate(0 4.500007629394531 7.000007629394531)"><path d="M2.4 9.92 C5.21 12, 7.44 13.19, 9.17 14.75 M2.4 9.92 C5.05 11.73, 7.28 13.49, 9.17 14.75" stroke="#2f9e44" stroke-width="2" fill="none"></path></g><g transform="translate(838.0000457763672 293.3499660491944) rotate(0 4.500007629394531 7.000007629394531)"><path d="M7.09 6.7 C8.18 9.97, 8.68 12.35, 9.17 14.75 M7.09 6.7 C8.03 9.7, 8.53 12.65, 9.17 14.75" stroke="#2f9e44" stroke-width="2" fill="none"></path></g></g><mask></mask><g stroke-linecap="round"><g transform="translate(771 294.349988937378) rotate(0 -5.499992370605469 6.999988555908203)"><path d="M-0.35 0.4 C-2.15 2.75, -9.04 12.11, -10.81 14.46 M0.47 0.14 C-1.38 2.31, -9.18 11.47, -11.14 13.72" stroke="#2f9e44" stroke-width="2" fill="none"></path></g><g transform="translate(771 294.349988937378) rotate(0 -5.499992370605469 6.999988555908203)"><path d="M-8 5.4 C-8.57 7.99, -9.46 10.32, -11.14 13.72 M-8 5.4 C-9.39 8.44, -10.42 11.61, -11.14 13.72" stroke="#2f9e44" stroke-width="2" fill="none"></path></g><g transform="translate(771 294.349988937378) rotate(0 -5.499992370605469 6.999988555908203)"><path d="M-3.38 9.36 C-5.33 10.78, -7.57 11.94, -11.14 13.72 M-3.38 9.36 C-6.56 10.86, -9.36 12.51, -11.14 13.72" stroke="#2f9e44" stroke-width="2" fill="none"></path></g></g><mask></mask><g stroke-linecap="round"><g transform="translate(755.0000152587891 286.34995841979986) rotate(0 -60.99998474121094 13.500003814697266)"><path d="M0.81 0.58 C-19.8 5.26, -101.92 23.93, -122.55 28.16 M-0.22 -0.16 C-21.13 4.2, -103.73 22.17, -123.78 26.65" stroke="#2f9e44" stroke-width="2" fill="none"></path></g><g transform="translate(755.0000152587891 286.34995841979986) rotate(0 -60.99998474121094 13.500003814697266)"><path d="M-98.45 10.57 C-107.4 16.13, -116.36 21.74, -123.78 26.65 M-98.45 10.57 C-104.88 14.09, -108.76 17.45, -123.78 26.65" stroke="#2f9e44" stroke-width="2" fill="none"></path></g><g transform="translate(755.0000152587891 286.34995841979986) rotate(0 -60.99998474121094 13.500003814697266)"><path d="M-94.05 30.62 C-104.74 28.35, -115.43 26.11, -123.78 26.65 M-94.05 30.62 C-101.33 29.84, -106.15 28.93, -123.78 26.65" stroke="#2f9e44" stroke-width="2" fill="none"></path></g></g><mask></mask><g stroke-linecap="round"><g transform="translate(753.0000457763672 272.34998130798346) rotate(0 -131.00000381469727 20.49999237060547)"><path d="M-0.53 0.66 C-44.03 7.6, -218.48 34.82, -262.23 41.55 M1.4 -0.04 C-42.18 6.55, -219.62 32.65, -263.3 39.72" stroke="#2f9e44" stroke-width="2" fill="none"></path></g><g transform="translate(753.0000457763672 272.34998130798346) rotate(0 -131.00000381469727 20.49999237060547)"><path d="M-236.99 25.31 C-241.2 27.71, -246.67 29.24, -263.3 39.72 M-236.99 25.31 C-245.72 29.36, -253.14 33.14, -263.3 39.72" stroke="#2f9e44" stroke-width="2" fill="none"></path></g><g transform="translate(753.0000457763672 272.34998130798346) rotate(0 -131.00000381469727 20.49999237060547)"><path d="M-233.88 45.59 C-238.7 43.89, -244.8 41.34, -263.3 39.72 M-233.88 45.59 C-243.73 43.49, -252.09 41.11, -263.3 39.72" stroke="#2f9e44" stroke-width="2" fill="none"></path></g></g><mask></mask><g stroke-linecap="round"><g transform="translate(756 260.3499736785889) rotate(0 -206.49999618530273 25)"><path d="M-0.02 0.37 C-69.09 8.77, -344.45 42.6, -413.29 50.73 M-1.49 -0.48 C-70.84 7.55, -345.67 40.58, -414.39 48.99" stroke="#2f9e44" stroke-width="2" fill="none"></path></g><g transform="translate(756 260.3499736785889) rotate(0 -206.49999618530273 25)"><path d="M-387.64 35.42 C-397.49 40.26, -407.39 45.98, -414.39 48.99 M-387.64 35.42 C-394.75 38.15, -399.45 42.5, -414.39 48.99" stroke="#2f9e44" stroke-width="2" fill="none"></path></g><g transform="translate(756 260.3499736785889) rotate(0 -206.49999618530273 25)"><path d="M-385.17 55.79 C-396.05 52.63, -406.92 50.36, -414.39 48.99 M-385.17 55.79 C-392.84 53.88, -398.1 53.58, -414.39 48.99" stroke="#2f9e44" stroke-width="2" fill="none"></path></g></g><mask></mask></svg>